{
  "accessors": [
    {
      "bufferView": 2,
      "componentType": 5126,
      "count": 325,
      "max": [
        70.4264907836914,
        70.4264907836914,
        17.247587203979492
      ],
      "min": [
        -70.4264907836914,
        -70.4264907836914,
        -17.247587203979492
      ],
      "type": "VEC3"
    },
    {
      "bufferView": 2,
      "byteOffset": 3900,
      "componentType": 5126,
      "count": 325,
      "max": [
        1.0,
        1.0,
        0.9997676014900208
      ],
      "min": [
        -1.0,
        -1.0,
        -0.9997676014900208
      ],
      "type": "VEC3"
    },
    {
      "bufferView": 1,
      "componentType": 5126,
      "count": 325,
      "max": [
        1.0,
        1.0
      ],
      "min": [
        0.0,
        0.0
      ],
      "type": "VEC2"
    },
    {
      "bufferView": 0,
      "componentType": 5125,
      "count": 1728,
      "type": "SCALAR"
    },
    {
      "bufferView": 2,
      "byteOffset": 7800,
      "componentType": 5126,
      "count": 48,
      "max": [
        19.334049224853516,
        20.40816307067871,
        10.0
      ],
      "min": [
        -19.334049224853516,
        -20.40816307067871,
        0.0
      ],
      "type": "VEC3"
    },
    {
      "bufferView": 2,
      "byteOffset": 8376,
      "componentType": 5126,
      "count": 48,
      "max": [
        1.0,
        1.0,
        1.0
      ],
      "min": [
        -1.0,
        -1.0,
        -1.0
      ],
      "type": "VEC3"
    },
    {
      "bufferView": 1,
      "byteOffset": 2600,
      "componentType": 5126,
      "count": 48,
      "max": [
        1.0,
        1.0
      ],
      "min": [
        0.0,
        0.0
      ],
      "type": "VEC2"
    },
    {
      "bufferView": 0,
      "byteOffset": 6912,
      "componentType": 5125,
      "count": 144,
      "type": "SCALAR"
    }
  ],
  "asset": {
    "extras": {
      "author": "asarin (https://sketchfab.com/asarin)",
      "license": "CC-BY-4.0 (http://creativecommons.org/licenses/by/4.0/)",
      "source": "https://sketchfab.com/3d-models/blood-cell-05d37876042d4f2289d9ad8142a41f7d",
      "title": "blood-cell"
    },
    "generator": "Sketchfab-11.59.2",
    "version": "2.0"
  },
  "bufferViews": [
    {
      "buffer": 0,
      "byteLength": 7488,
      "name": "floatBufferViews",
      "target": 34963
    },
    {
      "buffer": 0,
      "byteLength": 2984,
      "byteOffset": 7488,
      "byteStride": 8,
      "name": "floatBufferViews",
      "target": 34962
    },
    {
      "buffer": 0,
      "byteLength": 8952,
      "byteOffset": 10472,
      "byteStride": 12,
      "name": "floatBufferViews",
      "target": 34962
    }
  ],
  "buffers": [
    {
      "byteLength": 19424,
      "uri": "scene.bin"
    }
  ],
  "materials": [
    {
      "doubleSided": true,
      "name": "Material_44",
      "pbrMetallicRoughness": {
        "baseColorFactor": [
          0.3921895658718546,
          0.013880559069260529,
          0.013880559069260529,
          1.0
        ],
        "metallicFactor": 0.46380320911539563,
        "roughnessFactor": 0.6
      }
    },
    {
      "doubleSided": true,
      "name": "Material_45",
      "pbrMetallicRoughness": {
        "baseColorFactor": [
          0.3915724777497231,
          0.013702083047289686,
          0.013702083047289686,
          1.0
        ],
        "metallicFactor": 0.36652043850208854,
        "roughnessFactor": 0.6
      }
    }
  ],
  "meshes": [
    {
      "name": "Torus001_Material #44_0",
      "primitives": [
        {
          "attributes": {
            "NORMAL": 1,
            "POSITION": 0,
            "TEXCOORD_0": 2
          },
          "indices": 3,
          "material": 0,
          "mode": 4
        }
      ]
    },
    {
      "name": "Box001_Material #45_0",
      "primitives": [
        {
          "attributes": {
            "NORMAL": 5,
            "POSITION": 4,
            "TEXCOORD_0": 6
          },
          "indices": 7,
          "material": 1,
          "mode": 4
        }
      ]
    }
  ],
  "nodes": [
    {
      "children": [
        1
      ],
      "matrix": [
        1.0,
        0.0,
        0.0,
        0.0,
        0.0,
        2.220446049250313e-16,
        -1.0,
        0.0,
        0.0,
        1.0,
        2.220446049250313e-16,
        0.0,
        0.0,
        0.0,
        0.0,
        1.0
      ],
      "name": "Sketchfab_model"
    },
    {
      "children": [
        2
      ],
      "matrix": [
        0.02539999969303608,
        0.0,
        0.0,
        0.0,
        0.0,
        0.0,
        0.02539999969303608,
        0.0,
        0.0,
        -0.02539999969303608,
        0.0,
        0.0,
        0.0,
        0.0,
        0.0,
        1.0
      ],
      "name": "66a47992ce3e41188c0289a3e1dd1646.fbx"
    },
    {
      "children": [
        3,
        5
      ],
      "name": "RootNode"
    },
    {
      "children": [
        4
      ],
      "matrix": [
        1.0,
        0.0,
        0.0,
        0.0,
        0.0,
        2.220446049250313e-16,
        -1.0,
        0.0,
        0.0,
        1.0,
        2.220446049250313e-16,
        0.0,
        0.0,
        0.0,
        -0.4296455383300781,
        1.0
      ],
      "name": "Torus001"
    },
    {
      "mesh": 0,
      "name": "Torus001_Material #44_0"
    },
    {
      "children": [
        6
      ],
      "matrix": [
        3.0012590885162354,
        0.0,
        0.0,
        0.0,
        0.0,
        6.66413388587247e-16,
        -3.0012590885162354,
        0.0,
        0.0,
        2.6594929695129395,
        5.90526065716399e-16,
        0.0,
        -0.05700874328613281,
        -12.602579116821289,
        -1.569954514503479,
        1.0
      ],
      "name": "Box001"
    },
    {
      "mesh": 1,
      "name": "Box001_Material #45_0"
    }
  ],
  "scene": 0,
  "scenes": [
    {
      "name": "Sketchfab_Scene",
      "nodes": [
        0
      ]
    }
  ]
}
