{
  "accessors": [
    {
      "bufferView": 2,
      "componentType": 5126,
      "count": 65532,
      "max": [
        0.9765632152557373,
        0.99937868118286133,
        0.98253810405731201
      ],
      "min": [
        -0.99545049667358398,
        -1.0166488885879517,
        -1.0139342546463013
      ],
      "type": "VEC3"
    },
    {
      "bufferView": 2,
      "byteOffset": 786384,
      "componentType": 5126,
      "count": 65532,
      "max": [
        0.99997520446777344,
        0.9998583197593689,
        0.9996066689491272
      ],
      "min": [
        -0.99949139356613159,
        -0.99987173080444336,
        -0.99986684322357178
      ],
      "type": "VEC3"
    },
    {
      "bufferView": 1,
      "componentType": 5126,
      "count": 65532,
      "max": [
        0.99242424964904785,
        0.4723820686340332
      ],
      "min": [
        0.0075757508166134357,
        0
      ],
      "type": "VEC2"
    },
    {
      "bufferView": 0,
      "componentType": 5125,
      "count": 98298,
      "max": [
        65531
      ],
      "min": [
        0
      ],
      "type": "SCALAR"
    },
    {
      "bufferView": 2,
      "byteOffset": 1572768,
      "componentType": 5126,
      "count": 57348,
      "max": [
        0.9465751051902771,
        0.96938323974609375,
        0.95254361629486084
      ],
      "min": [
        -0.96546334028244019,
        -0.98517882823944092,
        -0.98393607139587402
      ],
      "type": "VEC3"
    },
    {
      "bufferView": 2,
      "byteOffset": 2260944,
      "componentType": 5126,
      "count": 57348,
      "max": [
        0.99949097633361816,
        0.99879759550094604,
        0.99986773729324341
      ],
      "min": [
        -0.99997454881668091,
        -0.9997713565826416,
        -0.9996148943901062
      ],
      "type": "VEC3"
    },
    {
      "bufferView": 1,
      "byteOffset": 524256,
      "componentType": 5126,
      "count": 57348,
      "max": [
        0.99242424964904785,
        0.4723820686340332
      ],
      "min": [
        0.0075757508166134357,
        0
      ],
      "type": "VEC2"
    },
    {
      "bufferView": 0,
      "byteOffset": 393192,
      "componentType": 5125,
      "count": 86022,
      "max": [
        57347
      ],
      "min": [
        0
      ],
      "type": "SCALAR"
    },
    {
      "bufferView": 2,
      "byteOffset": 2949120,
      "componentType": 5126,
      "count": 61440,
      "max": [
        1.054379940032959,
        1.5396435260772705,
        1.2994019985198975
      ],
      "min": [
        -1.3727558851242065,
        -1.1847970485687256,
        -1.3379243612289429
      ],
      "type": "VEC3"
    },
    {
      "bufferView": 2,
      "byteOffset": 3686400,
      "componentType": 5126,
      "count": 61440,
      "max": [
        0.99990445375442505,
        0.99958229064941406,
        0.99987208843231201
      ],
      "min": [
        -0.99992436170578003,
        -0.99947655200958252,
        -0.99993157386779785
      ],
      "type": "VEC3"
    },
    {
      "bufferView": 1,
      "byteOffset": 983040,
      "componentType": 5126,
      "count": 61440,
      "max": [
        0.98313397169113159,
        0.97765457630157471
      ],
      "min": [
        0.013945675455033779,
        0.023648714646697044
      ],
      "type": "VEC2"
    },
    {
      "bufferView": 0,
      "byteOffset": 737280,
      "componentType": 5125,
      "count": 92160,
      "max": [
        61439
      ],
      "min": [
        0
      ],
      "type": "SCALAR"
    }
  ],
  "asset": {
    "extras": {
      "author": "Vikrama Raghuraman (https://sketchfab.com/vikrama1998)",
      "license": "CC-BY-4.0 (http://creativecommons.org/licenses/by/4.0/)",
      "source": "https://sketchfab.com/3d-models/lympocyte-f84f96cc9a9847a18e6b469eb2a81fb8",
      "title": "Lympocyte"
    },
    "generator": "Sketchfab-9.38.0",
    "version": "2.0"
  },
  "bufferViews": [
    {
      "buffer": 0,
      "byteLength": 1105920,
      "byteOffset": 0,
      "name": "floatBufferViews",
      "target": 34963
    },
    {
      "buffer": 0,
      "byteLength": 1474560,
      "byteOffset": 1105920,
      "byteStride": 8,
      "name": "floatBufferViews",
      "target": 34962
    },
    {
      "buffer": 0,
      "byteLength": 4423680,
      "byteOffset": 2580480,
      "byteStride": 12,
      "name": "floatBufferViews",
      "target": 34962
    }
  ],
  "buffers": [
    {
      "byteLength": 7004160,
      "uri": "scene.bin"
    }
  ],
  "materials": [
    {
      "alphaMode": "BLEND",
      "doubleSided": false,
      "emissiveFactor": [
        0,
        0,
        0
      ],
      "name": "Material.002",
      "pbrMetallicRoughness": {
        "baseColorFactor": [
          0.056839800000000072,
          0.039668800000000004,
          0.79999999999999993,
          0.67052909666867311
        ],
        "metallicFactor": 0,
        "roughnessFactor": 0.5
      }
    },
    {
      "doubleSided": true,
      "emissiveFactor": [
        0,
        0,
        0
      ],
      "name": "Material.001",
      "pbrMetallicRoughness": {
        "baseColorFactor": [
          0.083345900000000001,
          0.096319799999999997,
          0.80000000000000004,
          1
        ],
        "metallicFactor": 0,
        "roughnessFactor": 0.5
      }
    }
  ],
  "meshes": [
    {
      "primitives": [
        {
          "attributes": {
            "NORMAL": 1,
            "POSITION": 0,
            "TEXCOORD_0": 2
          },
          "indices": 3,
          "material": 0,
          "mode": 4
        }
      ]
    },
    {
      "primitives": [
        {
          "attributes": {
            "NORMAL": 5,
            "POSITION": 4,
            "TEXCOORD_0": 6
          },
          "indices": 7,
          "material": 0,
          "mode": 4
        }
      ]
    },
    {
      "primitives": [
        {
          "attributes": {
            "NORMAL": 9,
            "POSITION": 8,
            "TEXCOORD_0": 10
          },
          "indices": 11,
          "material": 1,
          "mode": 4
        }
      ]
    }
  ],
  "nodes": [
    {
      "children": [
        1
      ],
      "name": "RootNode (gltf orientation matrix)",
      "rotation": [
        -0.70710678118654746,
        -0,
        -0,
        0.70710678118654757
      ]
    },
    {
      "children": [
        2
      ],
      "name": "RootNode (model correction matrix)"
    },
    {
      "children": [
        3
      ],
      "name": "root"
    },
    {
      "children": [
        4,
        7
      ],
      "matrix": [
        1,
        0,
        0,
        0,
        0,
        2.2204460492503131e-16,
        1,
        0,
        0,
        -1,
        2.2204460492503131e-16,
        0,
        0,
        0,
        0,
        1
      ],
      "name": "GLTF_SceneRootNode"
    },
    {
      "children": [
        5,
        6
      ],
      "matrix": [
        2.4896576404571533,
        0,
        0,
        0,
        0,
        2.4896576404571533,
        0,
        0,
        0,
        0,
        2.4896576404571533,
        0,
        0,
        0,
        0,
        1
      ],
      "name": "Icosphere_2"
    },
    {
      "mesh": 0,
      "name": ""
    },
    {
      "mesh": 1,
      "name": ""
    },
    {
      "children": [
        8
      ],
      "matrix": [
        1.4089754819869995,
        0,
        0,
        0,
        0,
        1.4089754819869995,
        0,
        0,
        0,
        0,
        1.4089754819869995,
        0,
        0.4821929931640625,
        -0.34442353248596191,
        0,
        1
      ],
      "name": "Icosphere.001_3"
    },
    {
      "mesh": 2,
      "name": ""
    }
  ],
  "scene": 0,
  "scenes": [
    {
      "name": "OSG_Scene",
      "nodes": [
        0
      ]
    }
  ]
}

